<?xml version="1.0" encoding="UTF-8" standalone="no"?>
<svg
   xmlns:dc="http://purl.org/dc/elements/1.1/"
   xmlns:cc="http://creativecommons.org/ns#"
   xmlns:rdf="http://www.w3.org/1999/02/22-rdf-syntax-ns#"
   xmlns:svg="http://www.w3.org/2000/svg"
   xmlns="http://www.w3.org/2000/svg"
   xmlns:sodipodi="http://sodipodi.sourceforge.net/DTD/sodipodi-0.dtd"
   xmlns:inkscape="http://www.inkscape.org/namespaces/inkscape"
   inkscape:version="1.0 (4035a4fb49, 2020-05-01)"
   sodipodi:docname="logoElement.svg"
   xml:space="preserve"
   enable-background="new 0 0 338.797 58.39"
   viewBox="0 0 338.797 58.39"
   height="58.39px"
   width="338.797px"
   y="0px"
   x="0px"
   id="Warstwa_1"
   version="1.1"><metadata
   id="metadata15"><rdf:RDF><cc:Work
       rdf:about=""><dc:format>image/svg+xml</dc:format><dc:type
         rdf:resource="http://purl.org/dc/dcmitype/StillImage" /></cc:Work></rdf:RDF></metadata><defs
   id="defs13" /><sodipodi:namedview
   inkscape:current-layer="g8"
   inkscape:window-maximized="1"
   inkscape:window-y="-8"
   inkscape:window-x="-8"
   inkscape:cy="29.195"
   inkscape:cx="169.3985"
   inkscape:zoom="3.8282512"
   showgrid="false"
   id="namedview11"
   inkscape:window-height="1017"
   inkscape:window-width="1920"
   inkscape:pageshadow="2"
   inkscape:pageopacity="0"
   guidetolerance="10"
   gridtolerance="10"
   objecttolerance="10"
   borderopacity="1"
   bordercolor="#666666"
   pagecolor="#ffffff" />
<g
   id="g8">
	<path
   style="fill:#ffffff"
   id="path2"
   d="M160.962,43.253c-1.896,2.23-4.422,4.066-7.381,5.234c-4.316,1.699-4.9,4.348-4.492,8.174   c0.133,1.26,0.492,1.746,1.764,1.729c3.523-0.051,7.048,0.033,10.569-0.055c0.705-0.018,1.536-0.408,2.074-0.889   c3.238-2.895,7.548-4.537,11.817-4.627c4.316,0.053,8.69,1.699,11.967,4.627c0.539,0.48,1.369,0.871,2.074,0.889   c3.521,0.088,7.047,0.004,10.567,0.055c1.272,0.018,1.632-0.469,1.767-1.729c0.408-3.826-0.178-6.475-4.493-8.174   c-7.271-2.866-11.917-9.778-11.093-16.667c1.283-10.711,15.445-17.865,24.9-19.108c2.334-0.305,3.863-1.329,3.921-3.739   c0.019-0.813,0.022-1.848-0.169-2.158c-0.414-0.671-1.315-0.74-2.253-0.742h-0.062c-13.288,0.023-24.047,0.014-37.338,0.014h-0.09   h-0.123c-2.104-0.005-4.206-0.005-6.308-0.005h-0.126c-2.102,0-4.203,0-6.306,0.005h-0.126h-0.089   c-13.29,0-24.049,0.01-37.337-0.014h-0.061c-1.266,0.002-2.461,0.13-2.492,1.68c-0.274,13.85,25.354,14.875,33.85,18.727   c5.09,2.309,7.879,5.365,8.019,9.134C163.999,37.896,163.345,40.449,160.962,43.253" />
	<path
   style="fill:#ffffff"
   id="path4"
   d="M5.847,6.014C2.388,6.014,0,2.328,0,0l90.677,0.001   c3.46,0,5.849,3.688,5.849,6.013H5.847z"
   clip-rule="evenodd"
   fill-rule="evenodd" />
	<path
   style="fill:#ffffff"
   id="path6"
   d="M248.12,0.001c-3.46,0-5.848,3.688-5.848,6.013h90.677   c3.46,0,5.848-3.686,5.848-6.014L248.12,0.001z"
   clip-rule="evenodd"
   fill-rule="evenodd" />
</g>
</svg>
