<?xml version="1.0" encoding="utf-8"?>
<!-- Generator: Adobe Illustrator 16.0.3, SVG Export Plug-In . SVG Version: 6.00 Build 0)  -->
<!DOCTYPE svg PUBLIC "-//W3C//DTD SVG 1.1//EN" "http://www.w3.org/Graphics/SVG/1.1/DTD/svg11.dtd">
<svg version="1.1" id="Warstwa_1" xmlns="http://www.w3.org/2000/svg" xmlns:xlink="http://www.w3.org/1999/xlink" x="0px" y="0px"
	 width="684.184px" height="321.566px" viewBox="0 0 684.184 321.566" enable-background="new 0 0 684.184 321.566"
	 xml:space="preserve">
<g>
	<path fill="#222222" d="M40.296,146.149c0.386,1.49,0.579,3.147,0.579,4.967v63.536c0,1.818-0.193,3.477-0.579,4.967
		c-0.393,1.519-0.988,2.857-1.784,4.012c-0.844,1.222-1.942,2.138-3.291,2.746c-1.307,0.59-2.837,0.886-4.585,0.886H19.972
		c-0.453,0-0.872-0.107-1.254-0.32c-0.364-0.205-0.677-0.502-0.934-0.887c-0.43-0.648-0.646-1.339-0.646-2.07v-82.198
		c0-0.387,0.069-0.768,0.205-1.137c0.127-0.349,0.318-0.687,0.572-1.01c0.298-0.384,0.673-0.675,1.119-0.865l-0.001-0.002
		c0.413-0.178,0.874-0.267,1.384-0.267h10.219c3.578,0,6.204,1.211,7.876,3.634C39.307,143.292,39.903,144.63,40.296,146.149
		 M36.338,129.032c-1.723-0.27-3.625-0.406-5.702-0.406H0v3.09c0,0.918,0.062,1.728,0.185,2.421
		c0.117,0.657,0.284,1.204,0.498,1.633c0.213,0.43,0.472,0.799,0.769,1.104c0.28,0.291,0.599,0.527,0.95,0.707
		c0.344,0.146,0.67,0.344,0.974,0.599H3.38c0.29,0.241,0.566,0.543,0.827,0.901c0.552,0.758,0.829,1.709,0.829,2.854v81.752
		c0,0.901-0.202,1.707-0.605,2.412c-0.403,0.705-0.994,1.284-1.771,1.737l-0.07,0.033c-0.368,0.187-0.706,0.435-1.008,0.746
		c-0.309,0.318-0.587,0.713-0.83,1.18c-0.237,0.457-0.422,1.039-0.548,1.748H0.198C0.066,232.283,0,233.169,0,234.201v2.795h30.636
		c4.062,0,7.537-0.524,10.421-1.572c2.823-1.024,5.093-2.557,6.803-4.586c3.511-4.166,5.267-9.76,5.267-16.776v-62.647
		c0-1.793-0.106-3.479-0.318-5.061s-0.533-3.088-0.963-4.521c-0.42-1.399-0.961-2.692-1.617-3.869
		c-0.654-1.168-1.432-2.239-2.33-3.209c-0.901-0.971-1.92-1.83-3.052-2.571l-0.003,0.004c-1.151-0.756-2.427-1.402-3.824-1.938
		C39.607,129.708,38.045,129.302,36.338,129.032z"/>
	<path fill="#222222" d="M100.332,201.685v12.678c0,1.975-0.947,2.961-2.843,2.961h-33.53c-0.948,0-1.698-0.316-2.251-0.947
		c-0.553-0.633-0.829-1.342-0.829-2.133v-5.094c0-0.869,0.039-1.422,0.118-1.66c0.078-0.236,0.158-0.434,0.236-0.592
		c4.582-12.244,8.729-23.185,12.44-32.82c1.58-4.106,3.12-8.154,4.621-12.145c1.501-3.989,2.844-7.563,4.028-10.724
		c1.186-3.157,2.133-5.727,2.844-7.698c0.711-1.976,1.105-3.044,1.186-3.199c0.157-0.476,0.138-0.892-0.06-1.244
		c-0.198-0.355-0.652-0.533-1.362-0.533H73.556c-0.79,0-1.264,0.117-1.422,0.355c-0.157,0.235-0.236,0.67-0.236,1.303v4.027h-3.91
		c-2.054,0-3.653-0.611-4.799-1.837c-1.146-1.225-1.718-2.743-1.718-4.561v-6.398c0-1.896,0.909-2.844,2.726-2.844h7.701H95.83
		c0.948,0,1.738,0.256,2.37,0.771c0.632,0.514,0.947,1.285,0.947,2.311v5.332c0,0.396-0.019,0.73-0.059,1.008
		c-0.04,0.275-0.099,0.533-0.178,0.771c-0.079,0.315-0.158,0.553-0.236,0.711c-4.582,12.164-8.729,23.025-12.441,32.583
		c-1.58,4.106-3.12,8.137-4.621,12.086c-1.5,3.949-2.843,7.481-4.027,10.604c-1.186,3.121-2.153,5.668-2.903,7.644
		c-0.75,1.975-1.126,3.002-1.126,3.08c-0.158,0.553-0.158,1.047,0,1.479c0.158,0.437,0.553,0.652,1.186,0.652h15.165
		c0-1.658,0.572-3.062,1.718-4.207s2.666-1.717,4.562-1.717h4.145V201.685z"/>
	<path fill="#222222" d="M123.318,138.415c-0.396,0-0.77,0.178-1.126,0.533c-0.355,0.355-0.533,0.771-0.533,1.244v24.762
		c0,1.107,0.593,1.658,1.777,1.658h14.1c0.395,0,0.81,0.139,1.244,0.416c0.434,0.275,0.651,0.729,0.651,1.363v6.635
		c0,1.104-0.592,1.658-1.776,1.658h-14.219c-1.185,0-1.777,0.553-1.777,1.657v27.607c0,1.105,0.475,1.658,1.422,1.658h11.849
		c0.868,0,1.304-0.514,1.304-1.541c0-1.264,0.532-2.25,1.6-2.961c1.065-0.711,2.508-1.066,4.324-1.066h4.502v12.203
		c0,0.869-0.296,1.58-0.889,2.133c-0.592,0.554-1.322,0.83-2.191,0.83h-7.346H113.13h-7.108v-3.082c0-1.735,0.217-3.061,0.65-3.969
		c0.436-0.908,1.047-1.559,1.837-1.955c1.027-0.553,1.54-1.381,1.54-2.488v-65.52c0-0.711-0.157-1.264-0.474-1.658
		c-0.315-0.396-0.671-0.711-1.066-0.949c-0.79-0.395-1.401-1.024-1.837-1.895c-0.434-0.869-0.65-2.094-0.65-3.674v-3.437h37.559
		c0.947,0,1.698,0.277,2.25,0.83c0.554,0.553,0.83,1.146,0.83,1.777v12.559h-4.384c-1.659,0-3.062-0.219-4.207-0.651
		c-1.145-0.435-1.718-1.322-1.718-2.666c0-0.474-0.117-0.929-0.354-1.361c-0.237-0.437-0.671-0.652-1.304-0.652L123.318,138.415
		L123.318,138.415z"/>
	<path fill="#222222" d="M201.516,128.581v3.437c0,1.344-0.315,2.448-0.947,3.317c-0.632,0.869-1.264,1.539-1.896,2.015
		c-0.316,0.315-0.573,0.633-0.771,0.946c-0.196,0.316-0.335,0.83-0.413,1.541v74.288c0,0.791-0.237,1.502-0.712,2.133
		c-0.474,0.634-1.185,0.949-2.132,0.949h-6.873c-1.026,0-1.757-0.436-2.191-1.305c-0.435-0.867-0.849-1.975-1.244-3.316
		c-0.158-0.395-0.671-1.955-1.54-4.68c-0.868-2.727-1.916-6.004-3.14-9.836c-1.225-3.83-2.527-7.918-3.91-12.262
		c-1.382-4.345-2.666-8.373-3.851-12.086c-1.186-3.711-2.172-6.813-2.962-9.3c-0.79-2.489-1.185-3.773-1.185-3.852
		c-0.079-0.158-0.158-0.277-0.237-0.355c-0.079-0.079-0.118,0.117-0.118,0.593v44.904c0,0.869,0.118,1.464,0.355,1.777
		c0.236,0.316,0.553,0.594,0.947,0.83c0.633,0.473,1.244,1.145,1.837,2.014c0.592,0.869,0.889,1.976,0.889,3.318v3.555h-18.483
		v-3.555c0-1.344,0.316-2.449,0.948-3.318c0.632-0.869,1.263-1.541,1.896-2.014c0.315-0.236,0.592-0.514,0.829-0.83
		c0.237-0.313,0.355-0.869,0.355-1.658v-66.825c-0.79-0.315-1.462-0.75-2.014-1.303c-0.553-0.475-1.027-1.125-1.422-1.955
		c-0.396-0.828-0.593-1.916-0.593-3.258v-3.91h13.389c0.948,0,1.658,0.217,2.133,0.652c0.474,0.434,0.828,1.047,1.066,1.836
		c0,0.158,0.395,1.5,1.184,4.027c0.791,2.528,1.777,5.668,2.963,9.42c1.185,3.752,2.469,7.858,3.851,12.321
		c1.383,4.463,2.686,8.729,3.909,12.795c1.226,4.068,2.312,7.644,3.259,10.724c0.948,3.082,1.579,5.135,1.896,6.162
		c0.08,0.157,0.179,0.313,0.297,0.475c0.118,0.158,0.178,0.117,0.178-0.119v-46.918c0-0.791-0.118-1.344-0.355-1.66
		c-0.237-0.313-0.514-0.631-0.83-0.946c-0.632-0.476-1.263-1.146-1.895-2.015c-0.633-0.869-0.949-1.975-0.949-3.317v-3.437H201.516z
		"/>
	<path fill="#222222" d="M250.686,128.345c1.896,0,3.199,0.413,3.91,1.243c0.711,0.828,1.066,2.23,1.066,4.205v3.675v6.516h-6.398
		c-1.105,0-1.975-0.375-2.606-1.125c-0.632-0.752-0.947-1.758-0.947-3.021c0-1.026-0.435-1.541-1.303-1.541h-5.807
		c-0.475,0-0.889,0.158-1.244,0.476c-0.355,0.316-0.533,0.828-0.533,1.541v65.52c0,0.789,0.119,1.345,0.355,1.658
		c0.237,0.316,0.554,0.633,0.947,0.947c0.633,0.475,1.245,1.146,1.838,2.016c0.592,0.869,0.888,1.976,0.888,3.316v3.438h-19.668
		v-3.438c0-1.342,0.315-2.447,0.948-3.316c0.632-0.869,1.264-1.541,1.896-2.016c0.316-0.314,0.593-0.631,0.83-0.947
		c0.236-0.313,0.354-0.869,0.354-1.658v-65.875c0-0.553-0.197-0.969-0.592-1.244c-0.395-0.276-0.79-0.416-1.185-0.416h-5.214
		c-0.315,0-0.691,0.119-1.125,0.355c-0.436,0.238-0.652,0.672-0.652,1.305c0,1.342-0.355,2.351-1.065,3.021
		c-0.712,0.672-2.015,1.008-3.911,1.008h-5.449v-7.228v-3.436c0-1.818,0.493-3.102,1.48-3.852c0.988-0.75,2.508-1.125,4.562-1.125
		L250.686,128.345L250.686,128.345z"/>
	<path fill="#222222" d="M279.24,138.415c-0.396,0-0.77,0.178-1.126,0.533c-0.355,0.355-0.533,0.771-0.533,1.244v24.762
		c0,1.107,0.593,1.658,1.777,1.658h14.1c0.395,0,0.81,0.139,1.244,0.416c0.434,0.275,0.651,0.729,0.651,1.363v6.635
		c0,1.104-0.592,1.658-1.776,1.658h-14.219c-1.185,0-1.777,0.553-1.777,1.657v27.607c0,1.105,0.475,1.658,1.422,1.658h11.848
		c0.869,0,1.305-0.514,1.305-1.541c0-1.264,0.532-2.25,1.6-2.961c1.065-0.711,2.508-1.066,4.324-1.066h4.502v12.203
		c0,0.869-0.296,1.58-0.889,2.133c-0.592,0.554-1.323,0.83-2.191,0.83h-7.346h-23.104h-7.108v-3.082c0-1.735,0.217-3.061,0.65-3.969
		c0.436-0.908,1.047-1.559,1.837-1.955c1.027-0.553,1.54-1.381,1.54-2.488v-65.52c0-0.711-0.157-1.264-0.474-1.658
		c-0.315-0.396-0.671-0.711-1.066-0.949c-0.79-0.395-1.401-1.024-1.837-1.895c-0.434-0.869-0.65-2.094-0.65-3.674v-3.437h37.559
		c0.947,0,1.698,0.277,2.25,0.83c0.554,0.553,0.83,1.146,0.83,1.777v12.559h-4.384c-1.658,0-3.062-0.219-4.207-0.651
		c-1.145-0.435-1.717-1.322-1.717-2.666c0-0.474-0.118-0.929-0.355-1.361c-0.237-0.437-0.671-0.652-1.304-0.652L279.24,138.415
		L279.24,138.415z"/>
	<path fill="#222222" d="M349.499,201.21v12.914c0,0.949-0.315,1.699-0.947,2.252c-0.632,0.554-1.264,0.83-1.896,0.83h-2.37h-35.425
		v-3.555c0-1.738,0.217-3.062,0.65-3.969c0.435-0.908,1.047-1.562,1.837-1.955c0.396-0.158,0.77-0.437,1.125-0.83
		c0.356-0.396,0.534-0.869,0.534-1.422v-65.403c0-0.869-0.119-1.461-0.355-1.777c-0.237-0.313-0.553-0.592-0.948-0.827
		c-0.632-0.476-1.264-1.146-1.896-2.017c-0.632-0.87-0.947-1.975-0.947-3.315v-3.556h19.785v3.556c0,1.342-0.315,2.446-0.947,3.315
		c-0.632,0.869-1.264,1.541-1.896,2.017c-0.395,0.235-0.69,0.514-0.888,0.827c-0.198,0.316-0.297,0.908-0.297,1.777l0.119,65.167
		c0,0.631,0.118,1.184,0.355,1.658c0.236,0.473,0.632,0.711,1.185,0.711h10.427c0.553,0,0.967-0.217,1.243-0.652
		c0.276-0.434,0.415-0.889,0.415-1.362c0-1.816,0.592-3,1.777-3.554c1.185-0.555,2.646-0.83,4.384-0.83H349.499z"/>
	<path fill="#222222" d="M427.343,132.253c0,1.345-0.219,2.431-0.651,3.261c-0.435,0.827-0.89,1.479-1.362,1.955
		c-0.632,0.553-1.304,0.946-2.016,1.184v66.706c0,0.791,0.118,1.344,0.355,1.658c0.237,0.315,0.553,0.594,0.947,0.83
		c0.633,0.475,1.265,1.146,1.896,2.016c0.632,0.867,0.948,2.053,0.948,3.553v3.793h-19.433v-3.91c0-1.344,0.316-2.448,0.949-3.317
		c0.631-0.869,1.264-1.541,1.896-2.015c0.396-0.235,0.71-0.514,0.946-0.829c0.236-0.314,0.355-0.867,0.355-1.658v-48.459
		c0-0.158-0.1-0.297-0.296-0.414c-0.198-0.119-0.376,0.02-0.534,0.414c-2.922,5.213-5.529,9.954-7.818,14.217
		c-1.027,1.816-2.016,3.615-2.963,5.393c-0.947,1.775-1.816,3.416-2.605,4.916c-0.79,1.502-1.461,2.767-2.016,3.791
		c-0.553,1.027-0.867,1.66-0.947,1.896c-0.236,0.553-0.73,0.969-1.48,1.244c-0.751,0.274-1.578,0.414-2.488,0.414
		c-0.907,0-1.737-0.14-2.487-0.414c-0.75-0.275-1.244-0.652-1.481-1.127c-0.156-0.236-0.492-0.867-1.007-1.896
		c-0.513-1.026-1.165-2.271-1.955-3.731c-0.789-1.461-1.678-3.101-2.665-4.918c-0.988-1.816-1.955-3.634-2.902-5.449
		c-2.291-4.344-4.857-9.123-7.701-14.336c-0.079-0.158-0.178-0.236-0.297-0.236c-0.118,0-0.178,0.156-0.178,0.473v48.459v0.119
		c0,0.789,0.1,1.345,0.297,1.658c0.197,0.316,0.494,0.594,0.889,0.83c0.633,0.473,1.264,1.146,1.896,2.014
		c0.631,0.869,0.947,1.976,0.947,3.318v3.555h-19.786v-3.555c0-1.344,0.315-2.449,0.947-3.318c0.632-0.868,1.264-1.541,1.896-2.014
		c0.396-0.236,0.713-0.514,0.948-0.83c0.236-0.313,0.354-0.869,0.354-1.658v-67.18c-0.789-0.236-1.461-0.631-2.014-1.184
		c-0.554-0.476-1.027-1.127-1.422-1.955c-0.396-0.83-0.593-1.916-0.593-3.261v-3.672h12.321c0.475,0,0.969,0.158,1.481,0.474
		c0.513,0.317,0.888,0.752,1.125,1.305c0.554,1.342,1.423,3.258,2.606,5.746s2.527,5.231,4.027,8.233
		c1.502,3.003,3.063,6.063,4.681,9.183c1.62,3.121,3.12,5.983,4.502,8.59c1.383,2.607,2.528,4.779,3.437,6.518
		c0.908,1.736,1.442,2.687,1.601,2.845c0.157,0.395,0.336,0.553,0.532,0.475c0.197-0.08,0.375-0.238,0.533-0.475
		c0-0.08,0.336-0.711,1.008-1.896c0.672-1.184,1.5-2.764,2.487-4.738c0.988-1.975,2.134-4.188,3.437-6.635
		c1.304-2.449,2.627-4.938,3.97-7.465l10.663-20.379c0.316-0.711,0.711-1.186,1.185-1.422c0.476-0.236,1.027-0.355,1.659-0.355
		h11.375L427.343,132.253L427.343,132.253z"/>
	<path fill="#222222" d="M449.262,138.415c-0.396,0-0.771,0.178-1.126,0.533c-0.354,0.355-0.533,0.771-0.533,1.244v24.762
		c0,1.107,0.593,1.658,1.777,1.658h14.1c0.396,0,0.81,0.139,1.244,0.416c0.435,0.275,0.651,0.729,0.651,1.363v6.635
		c0,1.104-0.593,1.658-1.777,1.658H449.38c-1.186,0-1.777,0.553-1.777,1.657v27.607c0,1.105,0.476,1.658,1.423,1.658h11.848
		c0.869,0,1.304-0.514,1.304-1.541c0-1.264,0.533-2.25,1.601-2.961c1.064-0.711,2.508-1.066,4.323-1.066h4.502v12.203
		c0,0.869-0.296,1.58-0.888,2.133c-0.593,0.554-1.323,0.83-2.191,0.83h-7.347h-23.104h-7.108v-3.082c0-1.735,0.217-3.061,0.65-3.969
		c0.435-0.908,1.047-1.559,1.837-1.955c1.027-0.553,1.54-1.381,1.54-2.488v-65.52c0-0.711-0.158-1.264-0.475-1.658
		c-0.314-0.396-0.671-0.711-1.065-0.949c-0.79-0.395-1.402-1.024-1.837-1.895c-0.435-0.869-0.65-2.094-0.65-3.674v-3.437h37.559
		c0.947,0,1.698,0.277,2.251,0.83s0.828,1.146,0.828,1.777v12.559h-4.384c-1.657,0-3.061-0.219-4.206-0.651
		c-1.145-0.435-1.718-1.322-1.718-2.666c0-0.474-0.118-0.929-0.354-1.361c-0.236-0.437-0.672-0.652-1.304-0.652L449.262,138.415
		L449.262,138.415z"/>
	<path fill="#222222" d="M527.459,128.581v3.437c0,1.344-0.316,2.448-0.948,3.317c-0.631,0.869-1.264,1.539-1.895,2.015
		c-0.316,0.315-0.573,0.633-0.771,0.946c-0.197,0.316-0.335,0.83-0.414,1.541v74.288c0,0.791-0.235,1.502-0.711,2.133
		c-0.474,0.634-1.185,0.949-2.133,0.949h-6.872c-1.026,0-1.757-0.436-2.19-1.305c-0.436-0.867-0.851-1.975-1.244-3.316
		c-0.158-0.395-0.672-1.955-1.541-4.68c-0.868-2.727-1.915-6.004-3.141-9.836c-1.224-3.83-2.526-7.918-3.908-12.262
		c-1.384-4.345-2.666-8.373-3.852-12.086c-1.186-3.711-2.172-6.813-2.962-9.3c-0.79-2.489-1.187-3.773-1.187-3.852
		c-0.077-0.158-0.156-0.277-0.236-0.355c-0.078-0.079-0.117,0.117-0.117,0.593v44.904c0,0.869,0.117,1.464,0.354,1.777
		c0.237,0.316,0.555,0.594,0.948,0.83c0.634,0.473,1.244,1.145,1.836,2.014c0.594,0.869,0.891,1.976,0.891,3.318v3.555h-18.483
		v-3.555c0-1.344,0.316-2.449,0.948-3.318c0.631-0.869,1.263-1.541,1.895-2.014c0.316-0.236,0.594-0.514,0.83-0.83
		c0.237-0.313,0.354-0.869,0.354-1.658v-66.825c-0.789-0.315-1.461-0.75-2.014-1.303c-0.554-0.475-1.026-1.125-1.422-1.955
		c-0.396-0.828-0.593-1.916-0.593-3.258v-3.91h13.388c0.948,0,1.659,0.217,2.135,0.652c0.474,0.434,0.828,1.047,1.064,1.836
		c0,0.158,0.396,1.5,1.186,4.027c0.79,2.528,1.776,5.668,2.962,9.42s2.469,7.858,3.852,12.321c1.382,4.463,2.687,8.729,3.909,12.795
		c1.225,4.068,2.311,7.644,3.259,10.724c0.947,3.082,1.579,5.135,1.896,6.162c0.079,0.157,0.178,0.313,0.297,0.475
		c0.118,0.158,0.178,0.117,0.178-0.119v-46.918c0-0.791-0.119-1.344-0.354-1.66c-0.237-0.313-0.515-0.631-0.83-0.946
		c-0.633-0.476-1.265-1.146-1.896-2.015c-0.633-0.869-0.949-1.975-0.949-3.317v-3.437H527.459z"/>
	<path fill="#222222" d="M563.905,145.88c0-1.58-0.277-2.903-0.83-3.969s-1.264-1.936-2.132-2.606
		c-0.869-0.673-1.837-1.166-2.903-1.48c-1.066-0.316-2.152-0.475-3.258-0.475c-1.106,0-2.213,0.157-3.317,0.475
		c-1.105,0.314-2.094,0.809-2.963,1.48c-0.869,0.671-1.579,1.541-2.132,2.606c-0.555,1.064-0.83,2.389-0.83,3.969v54.028
		c0,1.578,0.275,2.902,0.83,3.969c0.553,1.066,1.263,1.937,2.132,2.607c0.869,0.67,1.856,1.164,2.963,1.479
		c1.104,0.316,2.211,0.474,3.317,0.474c1.104,0,2.19-0.156,3.258-0.474c1.067-0.316,2.034-0.811,2.903-1.479
		c0.867-0.672,1.579-1.541,2.132-2.607c0.553-1.065,0.83-2.391,0.83-3.969V145.88z M554.782,218.273
		c-2.923,0-5.647-0.357-8.176-1.066c-2.527-0.711-4.738-1.817-6.636-3.317c-1.896-1.5-3.377-3.377-4.442-5.627
		c-1.066-2.252-1.601-4.88-1.601-7.88v-54.977c0-3.002,0.533-5.629,1.601-7.879c1.065-2.252,2.548-4.107,4.442-5.568
		c1.896-1.461,4.107-2.547,6.636-3.258c2.527-0.711,5.253-1.065,8.176-1.065c2.922,0,5.646,0.354,8.175,1.065
		s4.72,1.797,6.576,3.258c1.854,1.461,3.316,3.316,4.384,5.568c1.064,2.25,1.6,4.877,1.6,7.879v54.977c0,3-0.533,5.628-1.6,7.88
		c-1.066,2.25-2.528,4.127-4.384,5.627c-1.856,1.5-4.049,2.606-6.576,3.317C560.43,217.916,557.704,218.273,554.782,218.273z"/>
	<path fill="#222222" d="M684.184,131.813v-3.236h-21.729v3.236c0,0.799,0.073,1.502,0.221,2.102
		c0.139,0.562,0.343,1.045,0.612,1.451c0.613,0.918,1.203,1.58,1.768,1.984l0.054,0.037c0.297,0.237,0.561,0.485,0.782,0.743
		c0.24,0.271,0.434,0.556,0.578,0.847l0.005,0.006c0.154,0.311,0.268,0.705,0.335,1.178v0.004c0.059,0.412,0.089,0.89,0.089,1.424
		v0.037l-0.011,0.09c-0.854,7.843-1.656,15.125-2.405,21.851c-0.777,6.975-1.507,13.42-2.186,19.332
		c-0.602,5.217-1.194,10.256-1.776,15.11c-0.313,2.595-0.597,4.931-0.853,7.003c-0.192,1.559-0.459,3.657-0.782,6.188l-0.657,5.16
		l-0.526,4.166h0.004c-0.146,1.18-0.271,2.086-0.378,2.717c-0.211,1.266-0.682,1.898-1.41,1.898h-1.021l-0.167-1.015l-0.889-5.405
		l-2.296-13.994c-0.422-2.58-0.918-5.619-1.49-9.15l-1.618-10.035c-0.537-3.334-1.112-6.836-1.724-10.504
		c-0.563-3.387-1.149-6.84-1.758-10.363c-1.159-6.713-2.271-13.083-3.333-19.1c-0.52-2.947-1.007-5.576-1.458-7.883
		c-0.465-2.375-0.889-4.396-1.268-6.058l-0.011-0.053c-0.052-0.287-0.216-0.563-0.488-0.832c-0.351-0.34-0.862-0.654-1.534-0.938
		h-0.005c-1.473-0.625-2.972-0.938-4.49-0.938c-0.675,0-1.366,0.063-2.069,0.185l0,0c-0.738,0.129-1.479,0.317-2.219,0.563
		c-0.641,0.215-1.14,0.49-1.492,0.824c-0.307,0.291-0.507,0.641-0.601,1.045l-0.005,0.016c-0.376,1.55-0.797,3.492-1.263,5.82
		c-0.458,2.287-0.943,4.889-1.459,7.803c-1.062,6.021-2.173,12.388-3.332,19.101c-0.62,3.598-1.206,7.055-1.759,10.377
		c-0.593,3.571-1.168,7.096-1.722,10.565l-1.615,10.078c-0.575,3.58-1.072,6.654-1.494,9.254l-2.296,14.144h-0.001l-0.888,5.477
		l-0.165,1.019h-1.021c-0.715,0-1.19-0.625-1.424-1.875c-0.114-0.611-0.261-1.521-0.436-2.718c-0.159-1.102-0.347-2.483-0.558-4.143
		c-0.22-1.736-0.431-3.475-0.633-5.221c-0.207-1.802-0.445-3.853-0.722-6.179v-0.004c-0.232-1.979-0.517-4.354-0.833-6.994
		c-0.581-4.854-1.176-9.895-1.776-15.11c-0.679-5.912-1.406-12.357-2.185-19.332c-0.75-6.726-1.553-14.008-2.406-21.851l-0.01-0.09
		v-0.037c0-0.534,0.03-1.012,0.088-1.424c0.066-0.473,0.181-0.869,0.339-1.188c0.146-0.291,0.339-0.574,0.578-0.847
		c0.224-0.256,0.486-0.506,0.784-0.743l0.052-0.037c0.565-0.404,1.156-1.066,1.769-1.984c0.271-0.406,0.475-0.891,0.611-1.451
		c0.147-0.6,0.221-1.303,0.221-2.102v-3.236H580.7v3.236c0,0.746,0.075,1.414,0.222,2.004c0.144,0.57,0.352,1.07,0.622,1.498h0.006
		c0.309,0.483,0.619,0.895,0.933,1.229c0.298,0.316,0.602,0.574,0.907,0.767l0.059,0.035l0.06,0.049
		c0.277,0.223,0.545,0.461,0.798,0.713h0.006c0.237,0.238,0.479,0.51,0.714,0.803l0.005,0.004c0.256,0.322,0.479,0.689,0.669,1.101
		c0.178,0.387,0.328,0.817,0.445,1.289l0.021,0.079l0.008,0.07c0.985,8.539,1.927,16.637,2.813,24.288
		c0.888,7.65,1.729,14.859,2.517,21.619h0.001l1.02,8.627v0.006l0.979,8.404c0.308,2.643,0.617,5.272,0.926,7.862
		c0.285,2.386,0.569,4.72,0.853,7.013l0.74,5.979l0.593,4.758c0.315,2.533,0.491,4.025,0.521,4.478
		c0.037,0.271,0.113,0.543,0.228,0.813v0.007c0.123,0.293,0.293,0.588,0.507,0.879c0.152,0.209,0.332,0.364,0.532,0.461
		c0.215,0.104,0.479,0.155,0.793,0.155h16.735c0.408,0,0.759-0.053,1.044-0.151c0.242-0.086,0.45-0.215,0.62-0.385
		c0.229-0.228,0.45-0.527,0.664-0.896c0.228-0.393,0.442-0.848,0.646-1.363l12.572-72.032l1.2-6.882l1.175,6.886l12.274,72.024
		c0.205,0.521,0.422,0.978,0.648,1.367v0.004c0.214,0.371,0.435,0.67,0.658,0.894l0.005,0.006c0.164,0.164,0.373,0.291,0.621,0.379
		c0.285,0.102,0.636,0.151,1.044,0.151h16.587c0.313,0,0.579-0.053,0.793-0.155c0.202-0.099,0.38-0.252,0.533-0.461
		c0.214-0.291,0.384-0.586,0.506-0.879V235.3c0.109-0.26,0.186-0.518,0.224-0.766c0.011-0.191,0.058-0.635,0.137-1.328
		c0.099-0.838,0.229-1.914,0.39-3.195l0.593-4.758l0.74-5.979c0.283-2.293,0.566-4.627,0.852-7.012
		c0.311-2.591,0.619-5.222,0.926-7.863l0.981-8.404v-0.006l1.018-8.627h0.002l2.517-21.619l2.813-24.288l0.01-0.07l0.02-0.079
		c0.116-0.472,0.268-0.902,0.445-1.289c0.188-0.41,0.413-0.777,0.669-1.101l0.005-0.004c0.235-0.293,0.475-0.563,0.714-0.803h0.004
		c0.256-0.254,0.525-0.496,0.804-0.719l0.051-0.039l0.063-0.039c0.308-0.191,0.61-0.449,0.908-0.767
		c0.313-0.334,0.624-0.744,0.932-1.229h0.006C683.901,134.433,684.184,133.265,684.184,131.813"/>
	<path fill="#222222" d="M86.875,108.216v8.073c0,0.684-0.642,1.217-1.923,1.604c-1.282,0.383-2.947,0.575-4.999,0.575
		c-2.05,0-3.693-0.149-4.933-0.448c-1.238-0.299-1.857-0.789-1.857-1.474v-0.257v-7.816c0-0.77,0.64-1.304,1.921-1.603
		c1.282-0.299,2.904-0.449,4.869-0.449c2.052,0,3.717,0.15,4.999,0.449C86.233,107.169,86.875,107.616,86.875,108.216"/>
	<path fill="#222222" d="M560.398,119.173c-0.317,0.298-0.521,0.445-0.604,0.445h-10.32c-0.169,0-0.222-0.147-0.157-0.445
		l4.869-13.457c0.319-0.297,0.523-0.444,0.606-0.444h10.321c0.169,0,0.222,0.147,0.155,0.444L560.398,119.173z"/>
	<path fill="#222222" d="M247.419,101.284c-0.353-0.284-0.744-0.527-1.169-0.727c-0.565-0.207-1.064-0.418-1.5-0.638l-0.001,0.004
		c-0.467-0.229-0.861-0.478-1.181-0.732l0.002-0.003c-0.603-0.483-1.188-1.176-1.75-2.076l-0.048-0.089
		c-1.908-3.72-3.723-7.261-5.438-10.618c-2.017-3.945-3.654-7.158-4.934-9.676v-0.006c-1.204-2.405-2.486-4.917-3.847-7.535
		c-0.448-0.861-1.057-2.044-1.81-3.517h-0.005c-0.42-0.822-0.935-1.841-1.597-3.166c-0.368-0.736-0.827-1.645-1.341-2.658
		c-0.404-0.799-0.771-1.513-1.097-2.137h-0.002c-0.313-0.604-0.564-1.114-0.749-1.528c-0.162-0.359-0.268-0.66-0.317-0.897
		c-0.154-0.479-0.261-0.896-0.313-1.245h0.003c-0.074-0.481-0.067-0.897,0.02-1.248c0.051-0.198,0.122-0.438,0.214-0.717
		c0.09-0.268,0.186-0.529,0.282-0.771l0.043-0.096l0.814-1.608l0.004-0.005l1.26-2.464c0.491-0.959,1.031-1.999,1.615-3.115
		c0.771-1.478,1.371-2.619,1.796-3.418h0.001l1.961-3.699l2.037-3.851l1.999-3.776v-0.005l1.852-3.479h0.005l1.647-3.078
		c0.557-1.031,1.022-1.889,1.393-2.563l0.002,0.001c0.433-0.789,0.775-1.405,1.025-1.845c0.264-0.468,0.453-0.786,0.564-0.957
		l0.677-1.093v-0.004c0.195-0.321,0.383-0.637,0.56-0.938c0.239-0.41,0.554-0.786,0.938-1.121c0.355-0.31,0.779-0.588,1.27-0.832
		l0.042-0.023c0.473-0.214,0.956-0.496,1.444-0.845c0.508-0.36,1.025-0.792,1.548-1.294l0.005-0.004
		c0.428-0.408,0.752-0.93,0.971-1.562c0.236-0.68,0.355-1.498,0.355-2.457V2.603h-8.125c-0.698,0-1.325,0.071-1.882,0.215
		c-0.536,0.14-1.028,0.351-1.471,0.633c-0.506,0.321-0.958,0.648-1.354,0.979h-0.005c-0.391,0.325-0.742,0.666-1.049,1.016
		l-0.009,0.016c-0.4,0.443-0.759,0.904-1.077,1.382c-0.313,0.471-0.58,0.944-0.795,1.418l-0.046,0.09l-19.698,35.545l-2.256,4.069
		V43.31V15.466c0-1.114,0.186-1.971,0.555-2.563h0.004c0.185-0.293,0.406-0.562,0.66-0.8c0.229-0.214,0.499-0.417,0.804-0.604
		c0.315-0.242,0.641-0.541,0.974-0.896c0.354-0.377,0.718-0.82,1.086-1.327c0.311-0.428,0.547-0.92,0.705-1.474
		c0.165-0.58,0.249-1.236,0.249-1.967V2.603h-22.025v3.235c0,0.729,0.083,1.387,0.249,1.967c0.157,0.554,0.394,1.046,0.705,1.474
		c0.367,0.507,0.73,0.951,1.086,1.328c0.352,0.374,0.695,0.688,1.028,0.938c0.253,0.188,0.486,0.398,0.695,0.624l0.002-0.003
		c0.212,0.229,0.403,0.476,0.567,0.738c0.341,0.547,0.572,1.304,0.692,2.268l0.01,0.076v0.07v82.789v0.045l-0.01,0.087
		c-0.056,0.509-0.138,0.95-0.242,1.322h-0.001c-0.124,0.443-0.29,0.812-0.491,1.094c-0.146,0.205-0.312,0.414-0.496,0.626
		c-0.202,0.234-0.4,0.447-0.594,0.641l-0.033,0.033l-0.1,0.074c-0.333,0.25-0.677,0.563-1.028,0.938
		c-0.355,0.378-0.719,0.82-1.086,1.326h-0.005c-0.307,0.422-0.541,0.914-0.701,1.476c-0.165,0.58-0.248,1.235-0.248,1.967v3.089
		h22.173v-3.089c0-0.73-0.084-1.387-0.248-1.967c-0.158-0.554-0.395-1.046-0.706-1.476l0.003-0.002
		c-0.356-0.49-0.721-0.933-1.089-1.324c-0.352-0.374-0.697-0.688-1.028-0.938l-0.029-0.018c-0.29-0.232-0.549-0.471-0.775-0.712
		v-0.004c-0.236-0.252-0.438-0.511-0.602-0.772l-0.003,0.002c-0.199-0.318-0.346-0.697-0.437-1.137l0,0
		c-0.081-0.386-0.121-0.813-0.121-1.281V72.78v-0.287l0.137-0.264l2.37-4.591l1.085-2.104l1.058,2.117
		c1.769,3.538,3.285,6.582,4.521,9.076c1.276,2.574,2.635,5.33,4.072,8.261l0.005,0.009c0.4,0.837,0.954,1.979,1.63,3.361
		l-0.005,0.001c0.543,1.108,1.085,2.206,1.624,3.284c0.677,1.354,1.208,2.42,1.575,3.162c0.626,1.27,1.122,2.278,1.471,2.992
		c0.505,1.038,0.945,1.927,1.322,2.672c0.443,0.872,0.834,1.622,1.172,2.254c0.36,0.674,0.676,1.268,0.946,1.781l0.002-0.001
		c0.217,0.412,0.416,0.802,0.587,1.144l0,0l0,0l0,0l0,0c0.342,0.586,0.665,1.111,0.966,1.575c0.312,0.479,0.607,0.904,0.88,1.269
		c0.252,0.338,0.514,0.635,0.78,0.891c0.245,0.236,0.492,0.433,0.737,0.58l0.005,0.007c0.241,0.147,0.517,0.279,0.819,0.391
		c0.298,0.109,0.625,0.197,0.979,0.258c0.769,0.136,1.713,0.204,2.828,0.204h6.813h1.756v-4.423c0-2.009-0.268-3.377-0.802-4.103
		C248.106,101.915,247.78,101.575,247.419,101.284"/>
	<path fill="#222222" d="M301.253,22.103v3.554c0,1.343-0.256,2.448-0.77,3.317c-0.514,0.869-1.086,1.539-1.718,2.014
		c-0.316,0.238-0.573,0.494-0.771,0.771c-0.198,0.277-0.336,0.73-0.414,1.362v0.237v60.308c0,3.001-0.534,5.627-1.6,7.879
		c-1.067,2.25-2.528,4.107-4.384,5.568s-4.029,2.547-6.517,3.258c-2.488,0.711-5.194,1.066-8.116,1.066s-5.648-0.355-8.175-1.066
		c-2.528-0.711-4.74-1.797-6.636-3.258s-3.376-3.318-4.443-5.568c-1.065-2.252-1.6-4.878-1.6-7.879V33.596v-0.119
		c0-0.789-0.098-1.342-0.296-1.658c-0.197-0.316-0.493-0.592-0.889-0.83c-0.632-0.475-1.264-1.145-1.895-2.014
		c-0.633-0.869-0.948-1.976-0.948-3.317v-3.554h20.142v3.554c0,1.343-0.375,2.448-1.126,3.317s-1.441,1.539-2.073,2.014
		c-0.395,0.238-0.69,0.514-0.889,0.83c-0.197,0.316-0.297,0.869-0.297,1.658v59.241c0,3.079,0.968,5.351,2.903,6.812
		c1.936,1.462,4.009,2.193,6.221,2.193c2.133,0,4.147-0.731,6.042-2.193c1.896-1.461,2.844-3.731,2.844-6.812V33.595v-0.119V33.12
		c0-0.632-0.118-1.086-0.354-1.362c-0.237-0.275-0.514-0.531-0.83-0.771c-0.632-0.475-1.265-1.146-1.896-2.014
		c-0.631-0.869-0.947-1.976-0.947-3.317v-3.554L301.253,22.103L301.253,22.103z"/>
	<path fill="#222222" d="M345.21,95.204v12.678c0,1.976-0.946,2.963-2.843,2.963h-33.531c-0.947,0-1.698-0.315-2.25-0.948
		c-0.554-0.631-0.83-1.342-0.83-2.132v-5.096c0-0.869,0.04-1.422,0.118-1.657c0.079-0.238,0.158-0.437,0.237-0.594
		c4.581-12.243,8.729-23.183,12.44-32.818c1.58-4.107,3.12-8.155,4.621-12.146c1.5-3.989,2.844-7.563,4.028-10.723
		c1.184-3.16,2.132-5.728,2.843-7.701s1.106-3.041,1.186-3.199c0.158-0.474,0.139-0.889-0.06-1.244
		c-0.197-0.354-0.651-0.532-1.362-0.532h-11.374c-0.79,0-1.264,0.118-1.422,0.354c-0.157,0.238-0.237,0.672-0.237,1.303v4.029
		h-3.909c-2.054,0-3.653-0.611-4.799-1.836s-1.718-2.745-1.718-4.563v-6.396c0-1.896,0.908-2.844,2.725-2.844h7.701h23.934
		c0.947,0,1.737,0.256,2.369,0.77c0.632,0.515,0.948,1.283,0.948,2.312v5.33c0,0.396-0.021,0.73-0.061,1.008
		c-0.039,0.276-0.098,0.533-0.178,0.771c-0.079,0.315-0.158,0.553-0.236,0.71c-4.582,12.163-8.729,23.024-12.441,32.582
		c-1.579,4.107-3.12,8.137-4.62,12.085c-1.501,3.95-2.844,7.484-4.028,10.604s-2.152,5.667-2.903,7.643
		c-0.75,1.975-1.125,3.001-1.125,3.08c-0.158,0.554-0.158,1.046,0,1.481c0.157,0.434,0.553,0.649,1.185,0.649h15.166
		c0-1.657,0.572-3.061,1.718-4.205c1.146-1.144,2.666-1.719,4.562-1.719L345.21,95.204L345.21,95.204z"/>
	<path fill="#222222" d="M399.475,22.263v3.436c0,1.344-0.315,2.449-0.947,3.318c-0.633,0.868-1.264,1.539-1.896,2.014
		c-0.315,0.316-0.573,0.632-0.771,0.947c-0.196,0.315-0.336,0.83-0.414,1.541v74.287c0,0.79-0.236,1.502-0.711,2.133
		c-0.475,0.633-1.186,0.948-2.133,0.948h-6.873c-1.025,0-1.756-0.436-2.191-1.305c-0.434-0.868-0.85-1.975-1.243-3.316
		c-0.157-0.396-0.672-1.954-1.541-4.681c-0.868-2.726-1.915-6.003-3.14-9.835c-1.225-3.83-2.526-7.918-3.909-12.262
		c-1.383-4.345-2.666-8.373-3.853-12.086c-1.185-3.712-2.172-6.813-2.961-9.3c-0.789-2.488-1.186-3.772-1.186-3.852
		c-0.078-0.157-0.157-0.276-0.236-0.354c-0.078-0.08-0.117,0.118-0.117,0.592v44.904c0,0.869,0.117,1.462,0.354,1.776
		c0.236,0.316,0.555,0.594,0.948,0.83c0.632,0.474,1.243,1.146,1.836,2.015c0.593,0.868,0.89,1.975,0.89,3.316v3.556h-18.482v-3.556
		c0-1.343,0.315-2.448,0.947-3.316c0.633-0.869,1.264-1.541,1.896-2.015c0.315-0.236,0.593-0.514,0.829-0.83
		c0.238-0.314,0.354-0.869,0.354-1.657V32.688c-0.788-0.316-1.461-0.75-2.013-1.303c-0.555-0.476-1.027-1.125-1.422-1.955
		c-0.396-0.83-0.594-1.915-0.594-3.259v-3.909h13.389c0.947,0,1.658,0.217,2.134,0.651c0.474,0.435,0.828,1.046,1.065,1.836
		c0,0.158,0.396,1.5,1.185,4.027c0.791,2.528,1.777,5.668,2.963,9.42c1.185,3.752,2.468,7.859,3.851,12.322s2.687,8.728,3.91,12.795
		c1.226,4.067,2.312,7.643,3.258,10.723c0.947,3.082,1.58,5.135,1.896,6.162c0.079,0.158,0.18,0.314,0.296,0.474
		c0.118,0.158,0.179,0.118,0.179-0.117V33.637c0-0.79-0.118-1.344-0.354-1.659c-0.237-0.315-0.514-0.631-0.83-0.947
		c-0.632-0.475-1.264-1.146-1.896-2.014c-0.633-0.869-0.948-1.976-0.948-3.318v-3.436H399.475z"/>
	<path fill="#222222" d="M419.734,99.394v0.237c0,0.71,0.119,1.225,0.355,1.539c0.236,0.316,0.514,0.594,0.829,0.83
		c0.632,0.474,1.264,1.146,1.896,2.015c0.632,0.868,0.946,1.975,0.946,3.316v3.556h-19.785v-3.556c0-1.343,0.276-2.429,0.83-3.259
		c0.553-0.829,1.224-1.52,2.014-2.072c0.396-0.236,0.69-0.514,0.889-0.83c0.198-0.314,0.296-0.829,0.296-1.539v-0.237v-65.64
		c0-0.79-0.098-1.343-0.296-1.657c-0.197-0.316-0.493-0.634-0.889-0.948c-0.633-0.475-1.264-1.146-1.896-2.016
		c-0.632-0.868-0.947-1.975-0.947-3.315v-3.438h19.785v3.438c0,1.342-0.314,2.447-0.946,3.315c-0.633,0.869-1.265,1.541-1.896,2.016
		c-0.396,0.314-0.69,0.632-0.889,0.948c-0.197,0.314-0.298,0.867-0.298,1.657v65.64H419.734z"/>
	<path fill="#222222" d="M470.122,71.373c-0.638,0.798-1.494,1.196-2.566,1.196h-13.922c-0.462,0-0.896-0.092-1.304-0.273h-0.005
		c-0.398-0.181-0.757-0.448-1.069-0.8l-0.002,0.003c-0.323-0.362-0.549-0.784-0.672-1.258c-0.11-0.428-0.136-0.887-0.071-1.372
		c0.016-0.148,0.049-0.405,0.102-0.763l0.279-1.814c0.266-1.694,0.586-3.723,0.963-6.076l1.332-8.366
		c0.271-1.699,0.53-3.281,0.78-4.75c0.238-1.396,0.522-3.002,0.854-4.816h-0.004l4.442-25.77l0.174-1.005h1.015h0.296h1.015
		l0.173,1.005l4.443,25.77h-0.003c0.328,1.813,0.617,3.437,0.854,4.832v0.005c0.257,1.505,0.517,3.078,0.777,4.729l1.333,8.366
		c0.173,1.081,0.357,2.195,0.556,3.355c0.182,1.061,0.342,1.961,0.478,2.684c0.175,0.938,0.288,1.547,0.337,1.829
		c0.063,0.35,0.103,0.604,0.12,0.766c0.066,0.446,0.043,0.887-0.074,1.313c-0.12,0.438-0.328,0.842-0.624,1.212L470.122,71.373
		L470.122,71.373z M490.334,102.798c-0.301-0.339-0.604-0.604-0.902-0.791l-0.059-0.036l-0.06-0.049
		c-0.27-0.215-0.527-0.439-0.772-0.671c-0.238-0.225-0.474-0.469-0.704-0.727l-0.002,0.002c-0.268-0.3-0.502-0.66-0.701-1.075
		l-0.002,0.001c-0.185-0.385-0.337-0.814-0.454-1.285l-0.02-0.085l-7.701-43.839l-1.463-8.219l-1.425-8.072l-1.333-7.613
		c-0.419-2.405-0.816-4.684-1.186-6.832l-1.018-5.862h-0.001c-0.309-1.765-0.588-3.338-0.834-4.722
		c-0.486-2.725-0.739-4.354-0.758-4.889c-0.088-0.715-0.293-1.389-0.61-2.016c-0.332-0.654-0.795-1.271-1.388-1.84
		c-0.569-0.55-1.231-0.964-1.983-1.236c-0.773-0.283-1.663-0.425-2.662-0.425h-18.641v2.199c0,1.945,0.27,3.492,0.809,4.634
		c0.482,1.022,1.195,1.725,2.136,2.102l-0.001,0.001c1,0.4,1.5,1.192,1.5,2.374c0,0.328-0.014,0.695-0.042,1.101
		c-0.026,0.397-0.066,0.797-0.115,1.192h-0.004c-0.024,0.193-0.084,0.551-0.178,1.065c-0.137,0.763-0.304,1.668-0.499,2.712
		l-0.777,4.108v0.007l-0.999,5.221c-0.406,2.11-0.797,4.166-1.167,6.156c-0.432,2.315-0.859,4.639-1.277,6.938
		c-0.482,2.652-0.94,5.136-1.369,7.433c-0.491,2.623-0.973,5.159-1.444,7.612l0,0c-1.154,6.076-2.354,12.458-3.592,19.134
		c-1.288,6.944-2.608,14.144-3.961,21.581l-0.015,0.08c-0.116,0.465-0.271,0.894-0.455,1.281c-0.196,0.41-0.433,0.771-0.702,1.074
		c-0.23,0.259-0.467,0.502-0.706,0.729c-0.245,0.23-0.504,0.456-0.771,0.671l-0.062,0.049l-0.058,0.036
		c-0.285,0.179-0.579,0.447-0.879,0.807c-0.336,0.398-0.673,0.9-1.002,1.497c-0.317,0.569-0.558,1.183-0.717,1.83
		c-0.158,0.649-0.238,1.352-0.238,2.102v2.646h22.32v-2.794c0-0.804-0.073-1.513-0.222-2.123c-0.14-0.58-0.35-1.091-0.627-1.525
		l0.003-0.002c-0.301-0.473-0.613-0.884-0.937-1.228c-0.298-0.317-0.602-0.573-0.906-0.766l-0.059-0.037l-0.061-0.047
		c-0.295-0.236-0.557-0.484-0.779-0.738c-0.238-0.272-0.432-0.556-0.577-0.847c-0.157-0.317-0.271-0.696-0.339-1.136l0.003-0.001
		c-0.062-0.398-0.092-0.841-0.092-1.325v-0.031l0.01-0.092c0.109-1.055,0.21-1.959,0.294-2.705c0.107-0.938,0.208-1.783,0.3-2.502
		l0.004-0.023c0.191-1.351,0.313-2.619,0.359-3.803c0.027-0.685,0.06-1.231,0.093-1.629c0.036-0.419,0.082-0.779,0.14-1.078
		c0.128-1.229,0.5-2.186,1.11-2.865c0.686-0.759,1.601-1.141,2.746-1.141h16.885c0.542,0,1.052,0.064,1.526,0.191
		c0.501,0.133,0.954,0.336,1.358,0.604l0.005,0.005c0.468,0.313,0.852,0.765,1.146,1.351c0.254,0.509,0.439,1.116,0.558,1.819
		l0.02,0.109v0.088c0,0.445,0.094,1.247,0.277,2.404c0.137,0.854,0.234,1.478,0.302,1.924c0.081,0.543,0.178,1.188,0.292,1.998
		c0.149,0.803,0.287,1.637,0.409,2.502c0.123,0.859,0.237,1.778,0.339,2.75l0.01,0.091v0.032c0,0.546-0.059,1.033-0.172,1.458
		c-0.135,0.499-0.352,0.919-0.647,1.258c-0.204,0.233-0.423,0.46-0.654,0.678c-0.232,0.221-0.486,0.438-0.754,0.653l-0.061,0.047
		l-0.06,0.037c-0.312,0.195-0.615,0.449-0.907,0.762v0.004c-0.321,0.345-0.636,0.756-0.937,1.229
		c-0.563,0.883-0.845,2.1-0.845,3.648v2.794h22.321v-2.941c0-0.74-0.08-1.427-0.239-2.054v-0.006
		c-0.156-0.613-0.39-1.181-0.696-1.692C490.998,103.638,490.665,103.172,490.334,102.798z"/>
	<path fill="#222222" d="M331.437,13.903c-0.317,0.296-0.521,0.445-0.604,0.445h-10.32c-0.169,0-0.222-0.149-0.158-0.445
		l4.87-13.458C325.544,0.149,325.747,0,325.831,0h10.32c0.169,0,0.222,0.149,0.156,0.445L331.437,13.903z"/>
	<path fill="#222222" d="M9.004,82.646L164.4,82.645c4.894,0,8.271-5.214,8.271-8.506H17.275
		C12.382,74.139,9.004,79.354,9.004,82.646"/>
	<path fill="#222222" d="M666.907,82.372c4.894,0,8.271,5.215,8.271,8.507l-157.515-0.001c-4.895,0-8.271-5.215-8.271-8.506H666.907
		z"/>
	<path fill="#222222" d="M324.974,300.154c-2.683,3.156-6.254,5.754-10.44,7.404c-6.105,2.404-6.932,6.149-6.354,11.563
		c0.189,1.779,0.696,2.47,2.496,2.443c4.983-0.07,9.969,0.047,14.949-0.078c0.998-0.022,2.173-0.576,2.935-1.256
		c4.581-4.094,10.677-6.42,16.715-6.545c6.106,0.074,12.293,2.402,16.929,6.545c0.762,0.68,1.937,1.232,2.935,1.256
		c4.98,0.125,9.967,0.008,14.948,0.078c1.801,0.025,2.308-0.664,2.497-2.443c0.578-5.414-0.25-9.159-6.354-11.563
		c-10.285-4.053-16.856-13.83-15.69-23.576c1.813-15.15,21.847-25.271,35.224-27.031c3.299-0.43,5.465-1.879,5.543-5.287
		c0.027-1.149,0.033-2.613-0.236-3.053c-0.586-0.949-1.86-1.049-3.188-1.051h-0.085c-18.798,0.033-34.018,0.02-52.814,0.02h-0.127
		h-0.178c-2.974-0.008-5.948-0.008-8.921-0.006h-0.178c-2.974-0.002-5.947-0.002-8.921,0.006h-0.177h-0.126
		c-18.8,0-34.019,0.015-52.816-0.02h-0.085c-1.789,0.002-3.48,0.184-3.523,2.375c-0.389,19.592,35.864,21.043,47.881,26.489
		c7.199,3.267,11.145,7.591,11.342,12.921C329.27,292.578,328.345,296.189,324.974,300.154"/>
	<path fill="#222222" d="M105.559,247.48c-4.894,0-8.271-5.215-8.271-8.508l128.266,0.002c4.895,0,8.272,5.215,8.272,8.506H105.559z
		"/>
	<path fill="#222222" d="M448.263,238.974c-4.895,0-8.271,5.215-8.271,8.506h128.266c4.896,0,8.271-5.215,8.271-8.508
		L448.263,238.974z"/>
</g>
</svg>
