<?xml version="1.0" encoding="utf-8"?>
<!-- Generator: Adobe Illustrator 16.0.3, SVG Export Plug-In . SVG Version: 6.00 Build 0)  -->
<!DOCTYPE svg PUBLIC "-//W3C//DTD SVG 1.1//EN" "http://www.w3.org/Graphics/SVG/1.1/DTD/svg11.dtd">
<svg version="1.1" id="Warstwa_1" xmlns="http://www.w3.org/2000/svg" xmlns:xlink="http://www.w3.org/1999/xlink" x="0px" y="0px"
	 width="28.346px" height="22.021px" viewBox="0 0 28.346 22.021" enable-background="new 0 0 28.346 22.021" xml:space="preserve">
<g>
	<path fill-rule="evenodd" clip-rule="evenodd" fill="#100F0F" d="M26.403,18.095c0.011,0.137,0.013,0.272,0.007,0.406
		c0.145,1.244,0.564,1.89,1.815,2.861c0.156,0.148,0.163,0.397,0.015,0.554c-0.501,0.529-2.048-1.104-2.389-1.664
		c-0.634,1.019-1.502,1.3-2.363,1.146C24.916,20.841,26.014,19.613,26.403,18.095"/>
	<path fill-rule="evenodd" clip-rule="evenodd" fill="#100F0F" d="M22.095,15.728c1.02-0.631,2.207,0.015,3.028,1.288
		c0.821,1.272,0.528,2.891-0.503,3.502C22.408,21.833,19.534,17.314,22.095,15.728 M20.917,15.602
		c1.586-1.7,3.812-0.824,4.915,0.886c1.496,2.319-0.028,5.38-2.39,4.95c-1.786-0.324-2.697-1.844-3.365-3.344
		c-0.117-0.265-0.266-0.547-0.5-0.87c-1.813-2.507-6.3-3.123-7.608-4.455C9.966,10.732,2.168,1.651,2.591,0
		c3.599,3.189,12.642,12.23,16.632,15.608C19.813,16.108,20.329,16.234,20.917,15.602z"/>
	<path fill-rule="evenodd" clip-rule="evenodd" fill="#100F0F" d="M4.331,15.728c-1.019-0.631-2.207,0.015-3.028,1.288
		c-0.821,1.272-0.528,2.891,0.502,3.502C4.019,21.833,6.893,17.314,4.331,15.728 M5.509,15.602c-1.585-1.7-3.812-0.824-4.915,0.886
		c-1.497,2.319,0.028,5.38,2.389,4.95c1.786-0.324,2.698-1.844,3.365-3.344c0.118-0.265,0.266-0.547,0.5-0.87
		c1.813-2.507,6.3-3.123,7.609-4.455C16.459,10.732,24.257,1.651,23.835,0C20.237,3.189,11.194,12.23,7.203,15.608
		C6.613,16.108,6.098,16.234,5.509,15.602z"/>
</g>
</svg>
